<svg width="234" height="235" viewBox="0 0 234 235" fill="none" xmlns="http://www.w3.org/2000/svg">
<circle cx="116.5" cy="117.5" r="113" stroke="#003878" stroke-opacity="0.4" stroke-width="7"/>
<path d="M113 231C177.617 231 230 179.46 230 116.5C230 53.5395 177.617 4 113 4" stroke="#003878" stroke-width="7" stroke-linecap="round"/>
<path d="M78.5795 135.477C76.1705 135.477 74.0227 135.034 72.1364 134.148C70.2614 133.261 68.7727 132.04 67.6705 130.483C66.5682 128.926 65.9943 127.142 65.9489 125.131H73.108C73.1875 126.483 73.7557 127.58 74.8125 128.42C75.8693 129.261 77.125 129.682 78.5795 129.682C79.7386 129.682 80.7614 129.426 81.6477 128.915C82.5455 128.392 83.2443 127.67 83.7443 126.75C84.2557 125.818 84.5114 124.75 84.5114 123.545C84.5114 122.318 84.25 121.239 83.7273 120.307C83.2159 119.375 82.5057 118.648 81.5966 118.125C80.6875 117.602 79.6477 117.335 78.4773 117.324C77.4545 117.324 76.4602 117.534 75.4943 117.955C74.5398 118.375 73.7955 118.949 73.2614 119.676L66.6989 118.5L68.3523 100.091H89.6932V106.125H74.4375L73.5341 114.869H73.7386C74.3523 114.006 75.2784 113.29 76.517 112.722C77.7557 112.153 79.142 111.869 80.6761 111.869C82.7784 111.869 84.6534 112.364 86.3011 113.352C87.9489 114.341 89.25 115.699 90.2045 117.426C91.1591 119.142 91.6307 121.119 91.6193 123.358C91.6307 125.71 91.0852 127.801 89.983 129.631C88.892 131.449 87.3636 132.881 85.3977 133.926C83.4432 134.96 81.1705 135.477 78.5795 135.477ZM110.455 135.767C107.523 135.756 105 135.034 102.886 133.602C100.784 132.17 99.1648 130.097 98.0284 127.381C96.9034 124.665 96.3466 121.398 96.358 117.58C96.358 113.773 96.9205 110.528 98.0455 107.847C99.1818 105.165 100.801 103.125 102.903 101.727C105.017 100.318 107.534 99.6136 110.455 99.6136C113.375 99.6136 115.886 100.318 117.989 101.727C120.102 103.136 121.727 105.182 122.864 107.864C124 110.534 124.563 113.773 124.551 117.58C124.551 121.409 123.983 124.682 122.847 127.398C121.722 130.114 120.108 132.187 118.006 133.619C115.903 135.051 113.386 135.767 110.455 135.767ZM110.455 129.648C112.455 129.648 114.051 128.642 115.244 126.631C116.438 124.619 117.028 121.602 117.017 117.58C117.017 114.932 116.744 112.727 116.199 110.966C115.665 109.205 114.903 107.881 113.915 106.994C112.938 106.108 111.784 105.665 110.455 105.665C108.466 105.665 106.875 106.659 105.682 108.648C104.489 110.636 103.886 113.614 103.875 117.58C103.875 120.261 104.142 122.5 104.676 124.295C105.222 126.08 105.989 127.42 106.977 128.318C107.966 129.205 109.125 129.648 110.455 129.648ZM148.922 128.455V126.614C148.922 125.216 149.217 123.932 149.808 122.761C150.411 121.58 151.28 120.636 152.416 119.932C153.564 119.216 154.962 118.858 156.609 118.858C158.28 118.858 159.683 119.21 160.82 119.915C161.967 120.619 162.831 121.562 163.411 122.744C164.001 123.915 164.297 125.205 164.297 126.614V128.455C164.297 129.852 164.001 131.142 163.411 132.324C162.82 133.494 161.95 134.432 160.803 135.136C159.655 135.852 158.257 136.21 156.609 136.21C154.939 136.21 153.536 135.852 152.399 135.136C151.263 134.432 150.399 133.494 149.808 132.324C149.217 131.142 148.922 129.852 148.922 128.455ZM153.882 126.614V128.455C153.882 129.261 154.075 130.023 154.462 130.739C154.859 131.455 155.575 131.812 156.609 131.812C157.643 131.812 158.348 131.46 158.723 130.756C159.109 130.051 159.303 129.284 159.303 128.455V126.614C159.303 125.784 159.121 125.011 158.757 124.295C158.393 123.58 157.678 123.222 156.609 123.222C155.587 123.222 154.876 123.58 154.479 124.295C154.081 125.011 153.882 125.784 153.882 126.614ZM131.007 108.477V106.636C131.007 105.227 131.308 103.937 131.911 102.767C132.513 101.585 133.382 100.642 134.518 99.9375C135.666 99.233 137.053 98.8807 138.678 98.8807C140.359 98.8807 141.768 99.233 142.905 99.9375C144.041 100.642 144.905 101.585 145.496 102.767C146.087 103.937 146.382 105.227 146.382 106.636V108.477C146.382 109.886 146.081 111.176 145.479 112.347C144.888 113.517 144.018 114.455 142.871 115.159C141.734 115.852 140.337 116.199 138.678 116.199C137.018 116.199 135.615 115.847 134.467 115.142C133.331 114.426 132.467 113.489 131.876 112.33C131.297 111.159 131.007 109.875 131.007 108.477ZM136.001 106.636V108.477C136.001 109.307 136.195 110.074 136.581 110.778C136.979 111.483 137.678 111.835 138.678 111.835C139.723 111.835 140.433 111.483 140.808 110.778C141.195 110.074 141.388 109.307 141.388 108.477V106.636C141.388 105.807 141.206 105.034 140.842 104.318C140.479 103.602 139.757 103.244 138.678 103.244C137.666 103.244 136.967 103.608 136.581 104.335C136.195 105.062 136.001 105.83 136.001 106.636ZM133.257 135L157.257 100.091H161.723L137.723 135H133.257Z" fill="black"/>
</svg>
