<svg width="236" height="236" viewBox="0 0 236 236" fill="none" xmlns="http://www.w3.org/2000/svg">
<circle cx="118.5" cy="118.5" r="113" stroke="#7ADF4A" stroke-opacity="0.3" stroke-width="7"/>
<path d="M4 118C4 180.96 55.0395 232 118 232C180.96 232 232 180.96 232 118C232 55.0395 180.96 4 118 4" stroke="#7ADF4A" stroke-width="7" stroke-linecap="round"/>
<path d="M72.2102 136L86.6818 107.364V107.125H69.8239V101.091H94.3182V107.21L79.8295 136H72.2102ZM111.658 136.477C109.249 136.477 107.101 136.034 105.214 135.148C103.339 134.261 101.851 133.04 100.749 131.483C99.6463 129.926 99.0724 128.142 99.027 126.131H106.186C106.266 127.483 106.834 128.58 107.891 129.42C108.947 130.261 110.203 130.682 111.658 130.682C112.817 130.682 113.839 130.426 114.726 129.915C115.624 129.392 116.322 128.67 116.822 127.75C117.334 126.818 117.589 125.75 117.589 124.545C117.589 123.318 117.328 122.239 116.805 121.307C116.294 120.375 115.584 119.648 114.675 119.125C113.766 118.602 112.726 118.335 111.555 118.324C110.533 118.324 109.538 118.534 108.572 118.955C107.618 119.375 106.874 119.949 106.339 120.676L99.777 119.5L101.43 101.091H122.771V107.125H107.516L106.612 115.869H106.817C107.43 115.006 108.357 114.29 109.595 113.722C110.834 113.153 112.22 112.869 113.754 112.869C115.857 112.869 117.732 113.364 119.379 114.352C121.027 115.341 122.328 116.699 123.283 118.426C124.237 120.142 124.709 122.119 124.697 124.358C124.709 126.71 124.163 128.801 123.061 130.631C121.97 132.449 120.442 133.881 118.476 134.926C116.521 135.96 114.249 136.477 111.658 136.477ZM148.953 129.455V127.614C148.953 126.216 149.249 124.932 149.839 123.761C150.442 122.58 151.311 121.636 152.447 120.932C153.595 120.216 154.993 119.858 156.641 119.858C158.311 119.858 159.714 120.21 160.851 120.915C161.999 121.619 162.862 122.562 163.442 123.744C164.033 124.915 164.328 126.205 164.328 127.614V129.455C164.328 130.852 164.033 132.142 163.442 133.324C162.851 134.494 161.982 135.432 160.834 136.136C159.686 136.852 158.288 137.21 156.641 137.21C154.97 137.21 153.567 136.852 152.43 136.136C151.294 135.432 150.43 134.494 149.839 133.324C149.249 132.142 148.953 130.852 148.953 129.455ZM153.913 127.614V129.455C153.913 130.261 154.107 131.023 154.493 131.739C154.891 132.455 155.607 132.812 156.641 132.812C157.675 132.812 158.379 132.46 158.754 131.756C159.141 131.051 159.334 130.284 159.334 129.455V127.614C159.334 126.784 159.152 126.011 158.788 125.295C158.425 124.58 157.709 124.222 156.641 124.222C155.618 124.222 154.908 124.58 154.51 125.295C154.112 126.011 153.913 126.784 153.913 127.614ZM131.038 109.477V107.636C131.038 106.227 131.339 104.937 131.942 103.767C132.544 102.585 133.413 101.642 134.55 100.938C135.697 100.233 137.084 99.8807 138.709 99.8807C140.391 99.8807 141.8 100.233 142.936 100.938C144.072 101.642 144.936 102.585 145.527 103.767C146.118 104.937 146.413 106.227 146.413 107.636V109.477C146.413 110.886 146.112 112.176 145.51 113.347C144.919 114.517 144.05 115.455 142.902 116.159C141.766 116.852 140.368 117.199 138.709 117.199C137.05 117.199 135.646 116.847 134.499 116.142C133.362 115.426 132.499 114.489 131.908 113.33C131.328 112.159 131.038 110.875 131.038 109.477ZM136.033 107.636V109.477C136.033 110.307 136.226 111.074 136.612 111.778C137.01 112.483 137.709 112.835 138.709 112.835C139.754 112.835 140.464 112.483 140.839 111.778C141.226 111.074 141.419 110.307 141.419 109.477V107.636C141.419 106.807 141.237 106.034 140.874 105.318C140.51 104.602 139.788 104.244 138.709 104.244C137.697 104.244 136.999 104.608 136.612 105.335C136.226 106.062 136.033 106.83 136.033 107.636ZM133.288 136L157.288 101.091H161.754L137.754 136H133.288Z" fill="black"/>
</svg>
