<svg width="233" height="235" viewBox="0 0 233 235" fill="none" xmlns="http://www.w3.org/2000/svg">
<circle cx="116.5" cy="118.5" r="113" stroke="#DF523D" stroke-opacity="0.44" stroke-width="7"/>
<path d="M229.5 120.5C229.5 56.1588 177.341 4 113 4" stroke="#DF523D" stroke-width="7"/>
<path d="M67.8295 136V130.682L80.2557 119.176C81.3125 118.153 82.1989 117.233 82.9148 116.415C83.642 115.597 84.1932 114.795 84.5682 114.011C84.9432 113.216 85.1307 112.358 85.1307 111.438C85.1307 110.415 84.8977 109.534 84.4318 108.795C83.9659 108.045 83.3295 107.472 82.5227 107.074C81.7159 106.665 80.8011 106.46 79.7784 106.46C78.7102 106.46 77.7784 106.676 76.983 107.108C76.1875 107.54 75.5739 108.159 75.142 108.966C74.7102 109.773 74.4943 110.733 74.4943 111.847H67.4886C67.4886 109.562 68.0057 107.58 69.0398 105.898C70.0739 104.216 71.5227 102.915 73.3864 101.994C75.25 101.074 77.3977 100.614 79.8295 100.614C82.3295 100.614 84.5057 101.057 86.358 101.943C88.2216 102.818 89.6705 104.034 90.7045 105.591C91.7386 107.148 92.2557 108.932 92.2557 110.943C92.2557 112.261 91.9943 113.562 91.4716 114.847C90.9602 116.131 90.0455 117.557 88.7273 119.125C87.4091 120.682 85.5511 122.551 83.1534 124.733L78.0568 129.727V129.966H92.7159V136H67.8295ZM110.814 136.477C108.405 136.477 106.257 136.034 104.371 135.148C102.496 134.261 101.007 133.04 99.9048 131.483C98.8026 129.926 98.2287 128.142 98.1832 126.131H105.342C105.422 127.483 105.99 128.58 107.047 129.42C108.104 130.261 109.359 130.682 110.814 130.682C111.973 130.682 112.996 130.426 113.882 129.915C114.78 129.392 115.479 128.67 115.979 127.75C116.49 126.818 116.746 125.75 116.746 124.545C116.746 123.318 116.484 122.239 115.962 121.307C115.45 120.375 114.74 119.648 113.831 119.125C112.922 118.602 111.882 118.335 110.712 118.324C109.689 118.324 108.695 118.534 107.729 118.955C106.774 119.375 106.03 119.949 105.496 120.676L98.9332 119.5L100.587 101.091H121.928V107.125H106.672L105.768 115.869H105.973C106.587 115.006 107.513 114.29 108.751 113.722C109.99 113.153 111.376 112.869 112.911 112.869C115.013 112.869 116.888 113.364 118.536 114.352C120.183 115.341 121.484 116.699 122.439 118.426C123.393 120.142 123.865 122.119 123.854 124.358C123.865 126.71 123.32 128.801 122.217 130.631C121.126 132.449 119.598 133.881 117.632 134.926C115.678 135.96 113.405 136.477 110.814 136.477ZM148.109 129.455V127.614C148.109 126.216 148.405 124.932 148.996 123.761C149.598 122.58 150.467 121.636 151.604 120.932C152.751 120.216 154.149 119.858 155.797 119.858C157.467 119.858 158.871 120.21 160.007 120.915C161.155 121.619 162.018 122.562 162.598 123.744C163.189 124.915 163.484 126.205 163.484 127.614V129.455C163.484 130.852 163.189 132.142 162.598 133.324C162.007 134.494 161.138 135.432 159.99 136.136C158.842 136.852 157.445 137.21 155.797 137.21C154.126 137.21 152.723 136.852 151.587 136.136C150.45 135.432 149.587 134.494 148.996 133.324C148.405 132.142 148.109 130.852 148.109 129.455ZM153.07 127.614V129.455C153.07 130.261 153.263 131.023 153.649 131.739C154.047 132.455 154.763 132.812 155.797 132.812C156.831 132.812 157.536 132.46 157.911 131.756C158.297 131.051 158.49 130.284 158.49 129.455V127.614C158.49 126.784 158.308 126.011 157.945 125.295C157.581 124.58 156.865 124.222 155.797 124.222C154.774 124.222 154.064 124.58 153.666 125.295C153.268 126.011 153.07 126.784 153.07 127.614ZM130.195 109.477V107.636C130.195 106.227 130.496 104.937 131.098 103.767C131.7 102.585 132.57 101.642 133.706 100.938C134.854 100.233 136.24 99.8807 137.865 99.8807C139.547 99.8807 140.956 100.233 142.092 100.938C143.229 101.642 144.092 102.585 144.683 103.767C145.274 104.937 145.57 106.227 145.57 107.636V109.477C145.57 110.886 145.268 112.176 144.666 113.347C144.075 114.517 143.206 115.455 142.058 116.159C140.922 116.852 139.524 117.199 137.865 117.199C136.206 117.199 134.803 116.847 133.655 116.142C132.518 115.426 131.655 114.489 131.064 113.33C130.484 112.159 130.195 110.875 130.195 109.477ZM135.189 107.636V109.477C135.189 110.307 135.382 111.074 135.768 111.778C136.166 112.483 136.865 112.835 137.865 112.835C138.911 112.835 139.621 112.483 139.996 111.778C140.382 111.074 140.575 110.307 140.575 109.477V107.636C140.575 106.807 140.393 106.034 140.03 105.318C139.666 104.602 138.945 104.244 137.865 104.244C136.854 104.244 136.155 104.608 135.768 105.335C135.382 106.062 135.189 106.83 135.189 107.636ZM132.445 136L156.445 101.091H160.911L136.911 136H132.445Z" fill="black"/>
</svg>
