<svg width="251" height="36" viewBox="0 0 251 36" fill="none" xmlns="http://www.w3.org/2000/svg">
<path d="M3.78409 18H0.958807V9.27273H3.87358C4.72869 9.27273 5.46307 9.44744 6.0767 9.79688C6.69034 10.1435 7.16051 10.642 7.48722 11.2926C7.81676 11.9403 7.98153 12.7173 7.98153 13.6236C7.98153 14.5327 7.81534 15.3139 7.48295 15.9673C7.15341 16.6207 6.67614 17.1236 6.05114 17.4759C5.42614 17.8253 4.67045 18 3.78409 18ZM2.27557 16.8494H3.71165C4.37642 16.8494 4.92898 16.7244 5.36932 16.4744C5.80966 16.2216 6.1392 15.8565 6.35795 15.3793C6.5767 14.8991 6.68608 14.3139 6.68608 13.6236C6.68608 12.9389 6.5767 12.358 6.35795 11.8807C6.14205 11.4034 5.8196 11.0412 5.39062 10.794C4.96165 10.5469 4.42898 10.4233 3.79261 10.4233H2.27557V16.8494ZM9.51669 18V11.4545H10.7908V18H9.51669ZM10.1602 10.4446C9.93857 10.4446 9.74822 10.3707 9.58913 10.223C9.43288 10.0724 9.35476 9.89347 9.35476 9.68608C9.35476 9.47585 9.43288 9.29687 9.58913 9.14915C9.74822 8.99858 9.93857 8.9233 10.1602 8.9233C10.3817 8.9233 10.5707 8.99858 10.7269 9.14915C10.886 9.29687 10.9656 9.47585 10.9656 9.68608C10.9656 9.89347 10.886 10.0724 10.7269 10.223C10.5707 10.3707 10.3817 10.4446 10.1602 10.4446ZM15.62 11.4545V12.4773H11.9212V11.4545H15.62ZM12.9354 18V10.696C12.9354 10.2869 13.0249 9.94744 13.2038 9.67756C13.3828 9.40483 13.62 9.2017 13.9155 9.06818C14.2109 8.93182 14.532 8.86364 14.8786 8.86364C15.1342 8.86364 15.353 8.88494 15.5348 8.92756C15.7166 8.96733 15.8516 9.00426 15.9396 9.03835L15.6413 10.0696C15.5817 10.0526 15.505 10.0327 15.4112 10.0099C15.3175 9.98437 15.2038 9.97159 15.0703 9.97159C14.7607 9.97159 14.5391 10.0483 14.4055 10.2017C14.2749 10.3551 14.2095 10.5767 14.2095 10.8665V18H12.9354ZM20.0497 11.4545V12.4773H16.3509V11.4545H20.0497ZM17.3651 18V10.696C17.3651 10.2869 17.4545 9.94744 17.6335 9.67756C17.8125 9.40483 18.0497 9.2017 18.3452 9.06818C18.6406 8.93182 18.9616 8.86364 19.3082 8.86364C19.5639 8.86364 19.7827 8.88494 19.9645 8.92756C20.1463 8.96733 20.2812 9.00426 20.3693 9.03835L20.071 10.0696C20.0114 10.0526 19.9347 10.0327 19.8409 10.0099C19.7472 9.98437 19.6335 9.97159 19.5 9.97159C19.1903 9.97159 18.9688 10.0483 18.8352 10.2017C18.7045 10.3551 18.6392 10.5767 18.6392 10.8665V18H17.3651ZM21.3643 18V11.4545H22.6385V18H21.3643ZM22.0078 10.4446C21.7862 10.4446 21.5959 10.3707 21.4368 10.223C21.2805 10.0724 21.2024 9.89347 21.2024 9.68608C21.2024 9.47585 21.2805 9.29687 21.4368 9.14915C21.5959 8.99858 21.7862 8.9233 22.0078 8.9233C22.2294 8.9233 22.4183 8.99858 22.5746 9.14915C22.7337 9.29687 22.8132 9.47585 22.8132 9.68608C22.8132 9.89347 22.7337 10.0724 22.5746 10.223C22.4183 10.3707 22.2294 10.4446 22.0078 10.4446ZM27.1097 18.1321C26.4762 18.1321 25.9308 17.9886 25.4734 17.7017C25.0188 17.4119 24.6694 17.0128 24.4251 16.5043C24.1808 15.9957 24.0586 15.4134 24.0586 14.7571C24.0586 14.0923 24.1836 13.5057 24.4336 12.9972C24.6836 12.4858 25.0359 12.0866 25.4904 11.7997C25.945 11.5128 26.4805 11.3693 27.0969 11.3693C27.5941 11.3693 28.0373 11.4616 28.4265 11.6463C28.8157 11.8281 29.1296 12.0838 29.3683 12.4134C29.6097 12.7429 29.7532 13.1278 29.7987 13.5682H28.5586C28.4904 13.2614 28.3342 12.9972 28.0898 12.7756C27.8484 12.554 27.5245 12.4432 27.1183 12.4432C26.7631 12.4432 26.4521 12.5369 26.185 12.7244C25.9208 12.9091 25.7148 13.1733 25.5671 13.517C25.4194 13.858 25.3455 14.2614 25.3455 14.7273C25.3455 15.2045 25.418 15.6165 25.5629 15.9631C25.7077 16.3097 25.9123 16.5781 26.1765 16.7685C26.4435 16.9588 26.7575 17.054 27.1183 17.054C27.3597 17.054 27.5785 17.0099 27.7745 16.9219C27.9734 16.831 28.1396 16.7017 28.2731 16.5341C28.4094 16.3665 28.5046 16.1648 28.5586 15.929H29.7987C29.7532 16.3523 29.6154 16.7301 29.3853 17.0625C29.1552 17.3949 28.8469 17.6562 28.4606 17.8466C28.0771 18.0369 27.6268 18.1321 27.1097 18.1321ZM35.3075 15.2855V11.4545H36.5859V18H35.3331V16.8665H35.2649C35.1143 17.2159 34.8729 17.5071 34.5405 17.7401C34.2109 17.9702 33.8004 18.0852 33.3089 18.0852C32.8885 18.0852 32.5163 17.9929 32.1925 17.8082C31.8714 17.6207 31.6186 17.3438 31.4339 16.9773C31.2521 16.6108 31.1612 16.1577 31.1612 15.6179V11.4545H32.4354V15.4645C32.4354 15.9105 32.5589 16.2656 32.8061 16.5298C33.0533 16.794 33.3743 16.9261 33.7692 16.9261C34.0078 16.9261 34.245 16.8665 34.4808 16.7472C34.7195 16.6278 34.9169 16.4474 35.0732 16.206C35.2322 15.9645 35.3104 15.6577 35.3075 15.2855ZM39.5721 9.27273V18H38.2979V9.27273H39.5721ZM44.3416 11.4545V12.4773H40.7663V11.4545H44.3416ZM41.7251 9.88636H42.9993V16.0781C42.9993 16.3253 43.0362 16.5114 43.1101 16.6364C43.1839 16.7585 43.2791 16.8423 43.3956 16.8878C43.5149 16.9304 43.6442 16.9517 43.7834 16.9517C43.8857 16.9517 43.9751 16.9446 44.0518 16.9304C44.1286 16.9162 44.1882 16.9048 44.2308 16.8963L44.4609 17.9489C44.3871 17.9773 44.282 18.0057 44.1456 18.0341C44.0092 18.0653 43.8388 18.0824 43.6342 18.0852C43.299 18.0909 42.9865 18.0312 42.6967 17.9062C42.407 17.7812 42.1726 17.5881 41.9936 17.3267C41.8146 17.0653 41.7251 16.7372 41.7251 16.3423V9.88636ZM48.5018 18.1321C47.8569 18.1321 47.3015 17.9943 46.8356 17.7188C46.3725 17.4403 46.0146 17.0497 45.7617 16.5469C45.5117 16.0412 45.3867 15.4489 45.3867 14.7699C45.3867 14.0994 45.5117 13.5085 45.7617 12.9972C46.0146 12.4858 46.3668 12.0866 46.8185 11.7997C47.2731 11.5128 47.8043 11.3693 48.4123 11.3693C48.7816 11.3693 49.1396 11.4304 49.4862 11.5526C49.8327 11.6747 50.1438 11.8665 50.4194 12.1278C50.695 12.3892 50.9123 12.7287 51.0714 13.1463C51.2305 13.5611 51.31 14.0653 51.31 14.6591V15.1108H46.1069V14.1562H50.0614C50.0614 13.821 49.9933 13.5241 49.8569 13.2656C49.7205 13.0043 49.5288 12.7983 49.2816 12.6477C49.0373 12.4972 48.7504 12.4219 48.4208 12.4219C48.0629 12.4219 47.7504 12.5099 47.4833 12.6861C47.2191 12.8594 47.0146 13.0866 46.8697 13.3679C46.7276 13.6463 46.6566 13.9489 46.6566 14.2756V15.0213C46.6566 15.4588 46.7333 15.831 46.8867 16.1378C47.043 16.4446 47.2603 16.679 47.5387 16.8409C47.8171 17 48.1424 17.0795 48.5146 17.0795C48.756 17.0795 48.9762 17.0455 49.1751 16.9773C49.3739 16.9062 49.5458 16.8011 49.6907 16.6619C49.8356 16.5227 49.9464 16.3509 50.0231 16.1463L51.229 16.3636C51.1325 16.7187 50.9592 17.0298 50.7092 17.2969C50.462 17.5611 50.1509 17.767 49.7759 17.9148C49.4038 18.0597 48.979 18.1321 48.5018 18.1321ZM47.837 10.581L48.8342 8.61648H50.1765L48.8555 10.581H47.837ZM56.739 18.081C56.506 18.081 56.3058 17.9986 56.1381 17.8338C55.9705 17.6662 55.8867 17.4645 55.8867 17.2287C55.8867 16.9957 55.9705 16.7969 56.1381 16.6321C56.3058 16.4645 56.506 16.3807 56.739 16.3807C56.9719 16.3807 57.1722 16.4645 57.3398 16.6321C57.5075 16.7969 57.5913 16.9957 57.5913 17.2287C57.5913 17.3849 57.5515 17.5284 57.4719 17.6591C57.3952 17.7869 57.293 17.8892 57.1651 17.9659C57.0373 18.0426 56.8952 18.081 56.739 18.081ZM56.739 13.3168C56.506 13.3168 56.3058 13.233 56.1381 13.0653C55.9705 12.8977 55.8867 12.6974 55.8867 12.4645C55.8867 12.2315 55.9705 12.0327 56.1381 11.8679C56.3058 11.7003 56.506 11.6165 56.739 11.6165C56.9719 11.6165 57.1722 11.7003 57.3398 11.8679C57.5075 12.0327 57.5913 12.2315 57.5913 12.4645C57.5913 12.6207 57.5515 12.7642 57.4719 12.8949C57.3952 13.0227 57.293 13.125 57.1651 13.2017C57.0373 13.2784 56.8952 13.3168 56.739 13.3168Z" fill="#121212"/>
<path d="M82 3L84.2451 9.90983H91.5106L85.6327 14.1803L87.8779 21.0902L82 16.8197L76.1221 21.0902L78.3673 14.1803L72.4894 9.90983H79.7549L82 3Z" fill="#FBC42C"/>
<path d="M116 3L118.245 9.90983H125.511L119.633 14.1803L121.878 21.0902L116 16.8197L110.122 21.0902L112.367 14.1803L106.489 9.90983H113.755L116 3Z" fill="#636363"/>
<path d="M150 3L152.245 9.90983H159.511L153.633 14.1803L155.878 21.0902L150 16.8197L144.122 21.0902L146.367 14.1803L140.489 9.90983H147.755L150 3Z" fill="#636363"/>
<path d="M184 3L186.245 9.90983H193.511L187.633 14.1803L189.878 21.0902L184 16.8197L178.122 21.0902L180.367 14.1803L174.489 9.90983H181.755L184 3Z" fill="#636363"/>
<path d="M218 3L220.245 9.90983H227.511L221.633 14.1803L223.878 21.0902L218 16.8197L212.122 21.0902L214.367 14.1803L208.489 9.90983H215.755L218 3Z" fill="#636363"/>
</svg>
