<svg width="902" height="549" viewBox="0 0 902 549" fill="none" xmlns="http://www.w3.org/2000/svg">
<g clip-path="url(#clip0_63_156)">
<path d="M902 42.7302H2.34766V45.0787H902V42.7302Z" fill="#DEDFE0"/>
<path d="M65.9058 24.2714H13.8965C7.20602 24.2714 1.75977 18.8229 1.75977 12.1298C1.75977 5.43669 7.20602 0 13.8965 0H65.9175C72.608 0 78.0542 5.44843 78.0542 12.1416C78.0542 18.8347 72.608 24.2831 65.9175 24.2831L65.9058 24.2714Z" fill="#DEDFE0"/>
<path d="M902 139.804H2.34766V142.152H902V139.804Z" fill="#DEDFE0"/>
<path d="M65.9058 121.345H13.8965C7.20602 121.345 1.75977 115.897 1.75977 109.204C1.75977 102.51 7.20602 97.062 13.8965 97.062H65.9175C72.608 97.062 78.0542 102.51 78.0542 109.204C78.0542 115.897 72.608 121.345 65.9175 121.345H65.9058Z" fill="#DEDFE0"/>
<path d="M902 236.866H2.34766V239.214H902V236.866Z" fill="#DEDFE0"/>
<path d="M65.9058 218.419H13.8965C7.20602 218.419 1.75977 212.97 1.75977 206.277C1.75977 199.584 7.20602 194.135 13.8965 194.135H65.9175C72.608 194.135 78.0542 199.584 78.0542 206.277C78.0542 212.97 72.608 218.419 65.9175 218.419H65.9058Z" fill="#DEDFE0"/>
<path d="M323.958 46.2531H2.34752C1.05638 46.2531 0 45.1963 0 43.9046C0 42.613 1.05638 41.5562 2.34752 41.5562H323.958C325.249 41.5562 326.306 42.613 326.306 43.9046C326.306 45.1963 325.249 46.2531 323.958 46.2531Z" fill="#DF523D"/>
<path d="M491.865 143.327H2.34752C1.05638 143.327 0 142.27 0 140.978C0 139.686 1.05638 138.63 2.34752 138.63H491.865C493.156 138.63 494.212 139.686 494.212 140.978C494.212 142.27 493.156 143.327 491.865 143.327Z" fill="#DF523D"/>
<path d="M163.153 240.389H2.34752C1.05638 240.389 0 239.332 0 238.04C0 236.748 1.05638 235.692 2.34752 235.692H163.153C164.444 235.692 165.5 236.748 165.5 238.04C165.5 239.332 164.444 240.389 163.153 240.389Z" fill="#DF523D"/>
<path d="M677.331 194.349L657.905 200.972L657.588 172.896L675.276 172.696L677.331 194.349Z" fill="#F3A3A6"/>
<path d="M659.877 180.646C670.612 180.646 679.314 171.94 679.314 161.2C679.314 150.461 670.612 141.755 659.877 141.755C649.142 141.755 640.439 150.461 640.439 161.2C640.439 171.94 649.142 180.646 659.877 180.646Z" fill="#F3A3A6"/>
<path d="M665.182 159.216C661.931 159.157 659.759 155.893 658.456 152.898C657.153 149.904 655.815 146.475 652.799 145.266C650.322 144.28 646.05 151.172 644.078 149.376C642.024 147.497 643.902 137.704 646.038 135.931C648.174 134.158 651.12 133.782 653.89 133.618C660.663 133.23 667.471 133.7 674.126 135.015C678.234 135.825 682.483 137.07 685.476 140.005C689.268 143.728 690.289 149.399 690.617 154.707C690.958 160.132 690.7 165.827 688.117 170.618C685.523 175.397 680.042 178.966 674.725 177.816C674.161 174.939 674.666 171.98 674.842 169.044C675.018 166.12 674.76 162.962 672.952 160.648C671.145 158.335 667.318 157.454 665.264 159.545" fill="#43312E"/>
<path d="M689.162 165.686C691.087 164.241 693.399 163.02 695.794 163.29C698.388 163.572 700.595 165.686 701.287 168.199C701.98 170.712 701.264 173.494 699.691 175.573C698.118 177.651 695.759 179.037 693.247 179.741C691.791 180.152 690.207 180.328 688.81 179.741C686.756 178.884 685.629 176.289 686.404 174.199" fill="#43312E"/>
<path d="M616.847 349.394C615.626 355.794 618.056 361.606 622.293 362.37C626.518 363.133 630.943 358.553 632.164 352.154C632.692 349.606 632.575 346.964 631.824 344.463L646.778 244.171L626.636 240.614L620.004 342.337C618.384 344.416 617.293 346.834 616.847 349.406V349.394Z" fill="#F3A3A6"/>
<path d="M657.552 188.09L643.831 188.243C634.147 189.816 631.565 195.03 629.475 204.612C626.271 219.231 622.186 238.711 623.043 238.981C624.417 239.427 647.892 250.16 659.77 247.506L657.552 188.09Z" fill="#DF523D"/>
<path d="M674.391 506.793L656.129 506.997L656.418 532.911L674.681 532.707L674.391 506.793Z" fill="#F3A3A6"/>
<path d="M638.92 548.79C636.995 548.814 635.293 548.79 634.001 548.685C629.142 548.297 624.482 544.763 622.123 542.696C621.067 541.768 620.714 540.265 621.243 538.974C621.618 538.046 622.393 537.341 623.355 537.048L636.138 533.243L656.737 519L656.972 519.411C657.066 519.564 659.143 523.216 659.848 525.693C660.118 526.633 660.059 527.419 659.672 528.03C659.402 528.453 659.026 528.699 658.721 528.852C659.096 529.239 660.282 530.026 663.921 530.566C669.214 531.353 670.282 525.846 670.318 525.611L670.353 525.423L670.505 525.317C673.005 523.662 674.543 522.91 675.083 523.063C675.423 523.157 675.975 523.321 677.642 538.257C677.794 538.727 678.886 542.156 678.205 545.455C677.466 549.049 661.82 547.98 658.697 547.733C658.603 547.745 646.913 548.708 638.896 548.79H638.92Z" fill="#8C89C2"/>
<path d="M726.126 485.829L710.738 495.67L724.691 517.505L740.079 507.664L726.126 485.829Z" fill="#F3A3A6"/>
<path d="M706.192 544.54C704.044 544.563 702.072 544.328 700.664 544.093C699.279 543.859 698.187 542.778 697.953 541.393C697.777 540.395 698.07 539.396 698.727 538.645L707.554 528.652L717.496 505.661L717.918 505.884C718.071 505.966 721.768 507.962 723.681 509.688C724.409 510.346 724.773 511.039 724.773 511.767C724.773 512.272 724.585 512.683 724.397 512.965C724.926 513.094 726.346 513.129 729.715 511.661C734.621 509.524 732.614 504.287 732.52 504.076L732.449 503.899L732.532 503.735C733.776 501.011 734.691 499.555 735.219 499.39C735.56 499.297 736.112 499.132 745.431 510.921C745.807 511.238 748.553 513.563 749.715 516.722C750.983 520.163 737.156 527.537 734.363 528.981C734.281 529.052 719.832 539.796 713.892 542.872C711.533 544.093 708.728 544.493 706.169 544.516L706.192 544.54Z" fill="#8C89C2"/>
<path d="M685.393 289.919L634.264 290.483L630.156 338.11L652.411 513.704L678.515 513.411L666.954 411.981L710.312 503.195L733.33 486.685L699.314 401.46C699.314 401.46 710.301 326.767 700.817 308.296C691.333 289.826 685.405 289.896 685.405 289.896V289.919H685.393Z" fill="#504E6F"/>
<path d="M710.865 292.538L629.652 293.442L652.858 188.149L688.235 187.75L710.865 292.538Z" fill="#DF523D"/>
<path d="M718.788 348.267C720.15 354.643 717.849 360.503 713.635 361.36C709.422 362.217 704.903 357.743 703.541 351.367C702.954 348.831 703.013 346.189 703.705 343.664L686.521 243.725L706.581 239.721L715.466 341.28C717.133 343.324 718.272 345.719 718.788 348.279V348.267Z" fill="#F3A3A6"/>
<path d="M674.513 187.902L688.234 187.75C697.953 189.112 700.641 194.267 702.953 203.802C706.475 218.35 710.994 237.725 710.149 238.019C708.775 238.488 685.558 249.737 673.621 247.354L674.525 187.902H674.513Z" fill="#DF523D"/>
</g>
<defs>
<clipPath id="clip0_63_156">
<rect width="902" height="549" fill="white"/>
</clipPath>
</defs>
</svg>
